<?xml version="1.0" encoding="utf-8"?>
<!-- Generator: Adobe Illustrator 26.3.1, SVG Export Plug-In . SVG Version: 6.00 Build 0)  -->
<svg version="1.1" id="Layer_1" xmlns="http://www.w3.org/2000/svg" xmlns:xlink="http://www.w3.org/1999/xlink" x="0px" y="0px"
	 viewBox="0 0 391.85 526.59" style="enable-background:new 0 0 391.85 526.59;" xml:space="preserve">
<style type="text/css">
	.st0{fill:#231F20;}
	.st1{fill:#010101;}
</style>
<path class="st0" d="M150.16,165.58c0,0,18.21-19.05,20.39-22.36c0,0,28.08,25.71,47.08,51.22c0,0,15.59-51.24,42.31-81.46
	c26.52-30,47.74-47.74,66.12-48.5c0,0-1.52,23.11-1.52,51.53c0,28.42,3.79,81.27,10.61,107.04c6.82,25.77,9.28,39.22,23.87,56.46
	c14.59,17.24,33.91,32.21,32.78,38.27c-1.14,6.06-24.06,7.39-26.71,7.39s-17.62-1.52-35.43-17.24
	c-17.81-15.72-30.12-58.92-33.34-79.19c-3.22-20.27-7.39-78.5-5.68-89.67c0,0-17.81,18.63-27.47,39.85
	c-9.66,21.22-19.94,69.49-36.04,69.11s-42.2-30.02-48.64-38.73c-6.44-8.72-25.83-27.91-25.83-27.91L150.16,165.58z"/>
<path class="st1" d="M224.3,294.95c-6.4-52.71-61.82-62.6-67.82-62.77l-12.54-69.21c0,0,59.19-52.71,48.02-114.36
	c-11.17-61.65-63.43-58.97-88.67-23.68c-25.24,35.29-6.03,114.81-6.03,114.81c-17.87,12.51-61.98,58.07-75.61,76.39
	C8.02,234.46,0.46,255.01,0.02,279.8c-0.45,24.79,7.44,57.18,26.88,81.53c19.43,24.35,46.05,37.15,74.19,38.72
	c28.14,1.56,49.66-4.79,49.66-4.79c3.57,8.93,5.03,40.37,5.92,54.44c0.89,14.07-5.84,24.42-13.86,33.19
	c-8.55,9.36-29.25,10.44-29.25,10.44s8.15-8.73,8.71-25.24c0.67-19.82-10.73-31.26-23-37.08c-11.5-5.45-29.71-7.59-49.36,9.16
	c-19.65,16.75-15.86,69.02,41.55,83.54c57.4,14.52,87.44-29.44,95.37-51.37c8.25-22.82-3.35-90.46-3.35-90.46
	C227.51,353.13,227.58,321.94,224.3,294.95 M131.08,60.24c2.05-15.6,8.8-24.72,17.73-23.08c8.94,1.64,10.28,14.89,10.57,18.02
	c0.3,3.13,0.36,15.93-2.83,23.08c-2.46,5.51-4.2,7.16-7.59,11.17c-6.95,8.21-16.08,17.79-16.08,17.79
	C132.86,106.96,128.82,77.46,131.08,60.24 M56.64,324.25c-13.55-25.02-13.97-69.58,2.48-89.39c16.76-20.18,47.25-44.04,47.25-44.04
	l9.33,47.41c-10.26,3.52-22.2,8.35-29.78,21.53c-8.12,14.12-9.13,38.15,2.49,51.85c11.85,13.98,28.31,14.87,29.58,14.57
	c1.27-0.3,4.73-1.98,1.63-4.72s-15.75-12.2-15.18-28.19c0.65-18.34,18.77-24.51,18.77-24.51c4.19,20.67,17.64,88.09,17.64,88.09
	C87.76,366.54,71.1,350.95,56.64,324.25 M192.26,312.63c-2.31,21-16.25,31.11-16.25,31.11c-2.34-15.41-14.51-78.79-14.51-78.79
	c14.23,1.61,21.22,11.76,24.68,17.01C193.71,293.37,193.46,301.76,192.26,312.63"/>
</svg>
